ISO-10303-21;
HEADER;
FILE_DESCRIPTION (( 'STEP AP214' ),
    '1' );
FILE_NAME ('MEMS tiny output plate template.STEP',
    '2025-11-13T21:53:54',
    ( '' ),
    ( '' ),
    'SwSTEP 2.0',
    'SolidWorks 2025',
    '' );
FILE_SCHEMA (( 'AUTOMOTIVE_DESIGN' ));
ENDSEC;

DATA;
#1 = VERTEX_POINT ( 'NONE', #297 ) ;
#2 = CYLINDRICAL_SURFACE ( 'NONE', #356, 1.499999999999994449 ) ;
#3 = CARTESIAN_POINT ( 'NONE',  ( 17.99000000000001265, 12.94999999999999929, 12.94999999999999574 ) ) ;
#4 = CARTESIAN_POINT ( 'NONE',  ( 7.990000000000003766, 12.00000000000000000, -12.94999999999999929 ) ) ;
#5 = CARTESIAN_POINT ( 'NONE',  ( -34.96000000000000085, 0.000000000000000000, 27.00000000000000000 ) ) ;
#6 = ORIENTED_EDGE ( 'NONE', *, *, #632, .F. ) ;
#7 = CARTESIAN_POINT ( 'NONE',  ( 17.99000000000001265, 12.94999999999999929, 12.94999999999999574 ) ) ;
#8 = CIRCLE ( 'NONE', #318, 1.499999999999987566 ) ;
#9 = AXIS2_PLACEMENT_3D ( 'NONE', #783, #458, #207 ) ;
#10 = VECTOR ( 'NONE', #542, 1000.000000000000000 ) ;
#11 =( NAMED_UNIT ( * ) SI_UNIT ( $, .STERADIAN. ) SOLID_ANGLE_UNIT ( ) );
#12 = EDGE_LOOP ( 'NONE', ( #353, #104, #280, #374 ) ) ;
#13 = CARTESIAN_POINT ( 'NONE',  ( 19.04000000000000981, -1.371604415045033344E-15, 25.49999999999998934 ) ) ;
#14 = ADVANCED_FACE ( 'NONE', ( #174 ), #804, .F. ) ;
#15 = SURFACE_SIDE_STYLE ('',( #144 ) ) ;
#16 = DIRECTION ( 'NONE',  ( -0.000000000000000000, -1.000000000000000000, -0.000000000000000000 ) ) ;
#17 = ORIENTED_EDGE ( 'NONE', *, *, #692, .F. ) ;
#18 = EDGE_CURVE ( 'NONE', #433, #417, #477, .T. ) ;
#19 = DIRECTION ( 'NONE',  ( -0.000000000000000000, -0.000000000000000000, -1.000000000000000000 ) ) ;
#20 = ORIENTED_EDGE ( 'NONE', *, *, #558, .T. ) ;
#21 = VECTOR ( 'NONE', #112, 1000.000000000000000 ) ;
#22 = VECTOR ( 'NONE', #446, 1000.000000000000000 ) ;
#23 = CIRCLE ( 'NONE', #749, 9.999999999999998224 ) ;
#24 = EDGE_CURVE ( 'NONE', #1, #537, #732, .T. ) ;
#25 = LINE ( 'NONE', #669, #306 ) ;
#26 = ORIENTED_EDGE ( 'NONE', *, *, #833, .F. ) ;
#27 = ORIENTED_EDGE ( 'NONE', *, *, #822, .F. ) ;
#28 = ORIENTED_EDGE ( 'NONE', *, *, #640, .F. ) ;
#29 = EDGE_CURVE ( 'NONE', #607, #105, #643, .T. ) ;
#30 = AXIS2_PLACEMENT_3D ( 'NONE', #43, #428, #805 ) ;
#31 = DIRECTION ( 'NONE',  ( 0.000000000000000000, 0.000000000000000000, -1.000000000000000000 ) ) ;
#32 = ORIENTED_EDGE ( 'NONE', *, *, #553, .T. ) ;
#33 = DIRECTION ( 'NONE',  ( 0.000000000000000000, 0.000000000000000000, -1.000000000000000000 ) ) ;
#34 = PRODUCT_CONTEXT ( 'NONE', #391, 'mechanical' ) ;
#35 = DIRECTION ( 'NONE',  ( -0.000000000000000000, -1.000000000000000000, -0.000000000000000000 ) ) ;
#36 = EDGE_LOOP ( 'NONE', ( #644, #438, #478, #393 ) ) ;
#37 = CARTESIAN_POINT ( 'NONE',  ( 3.061616997868382648E-16, 12.94999999999999929, 2.500000000000000000 ) ) ;
#38 = EDGE_CURVE ( 'NONE', #596, #836, #131, .T. ) ;
#39 = CARTESIAN_POINT ( 'NONE',  ( -20.91000000000049042, 12.94999999999999929, 12.94999999999999929 ) ) ;
#40 = CARTESIAN_POINT ( 'NONE',  ( -34.96000000000049113, 12.00000000000000000, -27.00000000000000000 ) ) ;
#41 = ORIENTED_EDGE ( 'NONE', *, *, #467, .F. ) ;
#42 = ORIENTED_EDGE ( 'NONE', *, *, #372, .F. ) ;
#43 = CARTESIAN_POINT ( 'NONE',  ( 7.990000000000012648, 12.94999999999999929, 12.94999999999999574 ) ) ;
#44 = ADVANCED_FACE ( 'NONE', ( #316 ), #583, .F. ) ;
#45 = CIRCLE ( 'NONE', #406, 1.499999999999987566 ) ;
#46 = CARTESIAN_POINT ( 'NONE',  ( 19.03999999999999559, -1.371604415045033344E-15, -25.49999999999998934 ) ) ;
#47 = VECTOR ( 'NONE', #19, 1000.000000000000000 ) ;
#48 = ORIENTED_EDGE ( 'NONE', *, *, #551, .T. ) ;
#49 = CIRCLE ( 'NONE', #527, 1.499999999999997780 ) ;
#50 = DIRECTION ( 'NONE',  ( 1.000000000000000000, 0.000000000000000000, -9.123360503285429670E-15 ) ) ;
#51 = DIRECTION ( 'NONE',  ( -0.000000000000000000, -1.000000000000000000, -0.000000000000000000 ) ) ;
#52 = EDGE_LOOP ( 'NONE', ( #711, #379, #664, #753 ) ) ;
#53 = DIRECTION ( 'NONE',  ( 0.000000000000000000, 0.000000000000000000, -1.000000000000000000 ) ) ;
#54 = DIRECTION ( 'NONE',  ( 0.000000000000000000, 0.000000000000000000, -1.000000000000000000 ) ) ;
#55 = DIRECTION ( 'NONE',  ( -0.000000000000000000, -1.000000000000000000, -0.000000000000000000 ) ) ;
#56 = ORIENTED_EDGE ( 'NONE', *, *, #344, .T. ) ;
#57 = CARTESIAN_POINT ( 'NONE',  ( -30.91000000000049397, 12.94999999999999929, -22.94999999999999929 ) ) ;
#58 = EDGE_CURVE ( 'NONE', #571, #473, #839, .T. ) ;
#59 = CARTESIAN_POINT ( 'NONE',  ( 0.000000000000000000, 12.94999999999999929, 0.000000000000000000 ) ) ;
#60 = CARTESIAN_POINT ( 'NONE',  ( 0.000000000000000000, 0.000000000000000000, 0.000000000000000000 ) ) ;
#61 = CIRCLE ( 'NONE', #639, 2.500000000000000000 ) ;
#62 = ORIENTED_EDGE ( 'NONE', *, *, #287, .F. ) ;
#63 = VECTOR ( 'NONE', #319, 1000.000000000000000 ) ;
#64 = DIRECTION ( 'NONE',  ( 0.000000000000000000, 0.000000000000000000, -1.000000000000000000 ) ) ;
#65 = DIRECTION ( 'NONE',  ( 0.000000000000000000, 0.000000000000000000, -1.000000000000000000 ) ) ;
#66 = CARTESIAN_POINT ( 'NONE',  ( 7.990000000000003766, 12.94999999999999929, -22.94999999999999929 ) ) ;
#67 = VERTEX_POINT ( 'NONE', #570 ) ;
#68 = DIRECTION ( 'NONE',  ( 0.000000000000000000, 1.000000000000000000, 0.000000000000000000 ) ) ;
#69 = EDGE_CURVE ( 'NONE', #182, #117, #504, .T. ) ;
#70 = CARTESIAN_POINT ( 'NONE',  ( -30.91000000000049397, 12.94999999999999929, -22.94999999999999929 ) ) ;
#71 = FACE_BOUND ( 'NONE', #684, .T. ) ;
#72 = EDGE_LOOP ( 'NONE', ( #715, #464, #552, #362 ) ) ;
#73 = CARTESIAN_POINT ( 'NONE',  ( -31.95999999999999375, -1.371604415045033344E-15, 25.49999999999998934 ) ) ;
#74 = PRODUCT ( 'MEMS tiny output plate template', 'MEMS tiny output plate template', '', ( #34 ) ) ;
#75 = CARTESIAN_POINT ( 'NONE',  ( 22.04000000000000270, 12.00000000000000000, -27.00000000000000000 ) ) ;
#76 = EDGE_CURVE ( 'NONE', #105, #473, #8, .T. ) ;
#77 = ORIENTED_EDGE ( 'NONE', *, *, #489, .T. ) ;
#78 = CARTESIAN_POINT ( 'NONE',  ( -30.91000000000049397, 12.94999999999999929, -22.94999999999999929 ) ) ;
#79 = AXIS2_PLACEMENT_3D ( 'NONE', #180, #563, #819 ) ;
#80 = CIRCLE ( 'NONE', #576, 2.500000000000000000 ) ;
#81 = DIRECTION ( 'NONE',  ( -0.000000000000000000, -1.000000000000000000, -0.000000000000000000 ) ) ;
#82 = ORIENTED_EDGE ( 'NONE', *, *, #259, .F. ) ;
#83 = EDGE_CURVE ( 'NONE', #203, #222, #450, .T. ) ;
#84 = DIRECTION ( 'NONE',  ( -1.000000000000000000, 0.000000000000000000, -0.000000000000000000 ) ) ;
#85 = DIRECTION ( 'NONE',  ( -0.000000000000000000, -1.000000000000000000, -0.000000000000000000 ) ) ;
#86 = ORIENTED_EDGE ( 'NONE', *, *, #385, .T. ) ;
#87 = ADVANCED_FACE ( 'NONE', ( #762 ), #778, .T. ) ;
#88 = ORIENTED_EDGE ( 'NONE', *, *, #58, .F. ) ;
#89 = AXIS2_PLACEMENT_3D ( 'NONE', #403, #771, #193 ) ;
#90 = AXIS2_PLACEMENT_3D ( 'NONE', #40, #50, #630 ) ;
#91 =( NAMED_UNIT ( * ) SI_UNIT ( $, .STERADIAN. ) SOLID_ANGLE_UNIT ( ) );
#92 = ORIENTED_EDGE ( 'NONE', *, *, #344, .F. ) ;
#93 = SHAPE_DEFINITION_REPRESENTATION ( #220, #108 ) ;
#94 = ORIENTED_EDGE ( 'NONE', *, *, #606, .F. ) ;
#95 = DIRECTION ( 'NONE',  ( 0.000000000000000000, 0.000000000000000000, 1.000000000000000000 ) ) ;
#96 = ADVANCED_FACE ( 'NONE', ( #631 ), #649, .F. ) ;
#97 = ORIENTED_EDGE ( 'NONE', *, *, #142, .F. ) ;
#98 = AXIS2_PLACEMENT_3D ( 'NONE', #455, #201, #251 ) ;
#99 = CARTESIAN_POINT ( 'NONE',  ( 7.990000000000010871, 12.94999999999999929, 22.94999999999999929 ) ) ;
#100 = AXIS2_PLACEMENT_3D ( 'NONE', #696, #510, #241 ) ;
#101 = VERTEX_POINT ( 'NONE', #139 ) ;
#102 = ADVANCED_FACE ( 'NONE', ( #187 ), #125, .F. ) ;
#103 = CARTESIAN_POINT ( 'NONE',  ( -30.91000000000049397, 12.00000000000000000, -12.94999999999999929 ) ) ;
#104 = ORIENTED_EDGE ( 'NONE', *, *, #253, .T. ) ;
#105 = VERTEX_POINT ( 'NONE', #710 ) ;
#106 = ADVANCED_FACE ( 'NONE', ( #71, #636, #826, #703, #245, #312 ), #255, .F. ) ;
#107 = DIRECTION ( 'NONE',  ( 0.000000000000000000, 0.000000000000000000, -1.000000000000000000 ) ) ;
#108 = ADVANCED_BREP_SHAPE_REPRESENTATION ( 'MEMS tiny output plate template', ( #746, #199 ), #556 ) ;
#109 = UNCERTAINTY_MEASURE_WITH_UNIT (LENGTH_MEASURE( 1.000000000000000082E-05 ), #657, 'distance_accuracy_value', 'NONE');
#110 = DIRECTION ( 'NONE',  ( -0.000000000000000000, -1.000000000000000000, -0.000000000000000000 ) ) ;
#111 = EDGE_LOOP ( 'NONE', ( #240, #166 ) ) ;
#112 = DIRECTION ( 'NONE',  ( 0.000000000000000000, -1.000000000000000000, 0.000000000000000000 ) ) ;
#113 = AXIS2_PLACEMENT_3D ( 'NONE', #228, #243, #53 ) ;
#114 = CARTESIAN_POINT ( 'NONE',  ( 7.990000000000010871, 12.00000000000000000, 22.94999999999999929 ) ) ;
#115 = STYLED_ITEM ( 'NONE', ( #777 ), #746 ) ;
#116 = ORIENTED_EDGE ( 'NONE', *, *, #385, .F. ) ;
#117 = VERTEX_POINT ( 'NONE', #675 ) ;
#118 = DIRECTION ( 'NONE',  ( -0.000000000000000000, 1.000000000000000000, -0.000000000000000000 ) ) ;
#119 = PLANE ( 'NONE',  #641 ) ;
#120 = EDGE_CURVE ( 'NONE', #163, #301, #388, .T. ) ;
#121 = CARTESIAN_POINT ( 'NONE',  ( 0.000000000000000000, 12.94999999999999929, 0.000000000000000000 ) ) ;
#122 = ORIENTED_EDGE ( 'NONE', *, *, #798, .F. ) ;
#123 = DIRECTION ( 'NONE',  ( -0.000000000000000000, -1.000000000000000000, -0.000000000000000000 ) ) ;
#124 = CARTESIAN_POINT ( 'NONE',  ( 19.03999999999999559, 0.000000000000000000, -24.00000000000000000 ) ) ;
#125 = PLANE ( 'NONE',  #416 ) ;
#126 = ORIENTED_EDGE ( 'NONE', *, *, #773, .T. ) ;
#127 = FACE_OUTER_BOUND ( 'NONE', #155, .T. ) ;
#128 = FACE_OUTER_BOUND ( 'NONE', #179, .T. ) ;
#129 = LINE ( 'NONE', #300, #540 ) ;
#130 = VECTOR ( 'NONE', #774, 1000.000000000000000 ) ;
#131 = LINE ( 'NONE', #66, #688 ) ;
#132 = AXIS2_PLACEMENT_3D ( 'NONE', #519, #65, #342 ) ;
#133 = EDGE_LOOP ( 'NONE', ( #789, #425, #28, #758 ) ) ;
#134 = CIRCLE ( 'NONE', #269, 1.499999999999997780 ) ;
#135 = FACE_BOUND ( 'NONE', #633, .T. ) ;
#136 = EDGE_CURVE ( 'NONE', #579, #469, #334, .T. ) ;
#137 = DIRECTION ( 'NONE',  ( 0.000000000000000000, 1.000000000000000000, 0.000000000000000000 ) ) ;
#138 = CARTESIAN_POINT ( 'NONE',  ( -31.96000000000000085, 12.00000000000000000, -25.50000000000000000 ) ) ;
#139 = CARTESIAN_POINT ( 'NONE',  ( 19.03999999999999559, -1.371604415045033344E-15, -22.50000000000001421 ) ) ;
#140 = ORIENTED_EDGE ( 'NONE', *, *, #18, .F. ) ;
#141 = DIRECTION ( 'NONE',  ( 1.000000000000000000, 0.000000000000000000, 0.000000000000000000 ) ) ;
#142 = EDGE_CURVE ( 'NONE', #662, #618, #236, .T. ) ;
#143 = CARTESIAN_POINT ( 'NONE',  ( -31.95999999999999375, 0.000000000000000000, 22.50000000000000711 ) ) ;
#144 = SURFACE_STYLE_FILL_AREA ( #582 ) ;
#145 = EDGE_LOOP ( 'NONE', ( #20, #92, #256, #167 ) ) ;
#146 = CARTESIAN_POINT ( 'NONE',  ( 3.061616997868382648E-16, 12.94999999999999929, 2.500000000000000000 ) ) ;
#147 = LINE ( 'NONE', #647, #524 ) ;
#148 = CARTESIAN_POINT ( 'NONE',  ( -20.91000000000049397, 12.94999999999999929, -22.94999999999999929 ) ) ;
#149 = EDGE_CURVE ( 'NONE', #607, #571, #591, .T. ) ;
#150 = ORIENTED_EDGE ( 'NONE', *, *, #313, .F. ) ;
#151 = LINE ( 'NONE', #580, #592 ) ;
#152 = AXIS2_PLACEMENT_3D ( 'NONE', #586, #329, #701 ) ;
#153 = DIRECTION ( 'NONE',  ( 0.000000000000000000, 0.000000000000000000, -1.000000000000000000 ) ) ;
#154 = ADVANCED_FACE ( 'NONE', ( #487 ), #172, .F. ) ;
#155 = EDGE_LOOP ( 'NONE', ( #234, #637, #169, #288 ) ) ;
#156 = CARTESIAN_POINT ( 'NONE',  ( 19.03999999999999559, 12.00000000000000000, -24.00000000000000000 ) ) ;
#157 = ORIENTED_EDGE ( 'NONE', *, *, #434, .T. ) ;
#158 = LINE ( 'NONE', #286, #204 ) ;
#159 = CARTESIAN_POINT ( 'NONE',  ( 0.000000000000000000, 12.94999999999999929, -2.500000000000000000 ) ) ;
#160 = ORIENTED_EDGE ( 'NONE', *, *, #521, .F. ) ;
#161 = CIRCLE ( 'NONE', #152, 1.499999999999997780 ) ;
#162 = EDGE_CURVE ( 'NONE', #295, #448, #763, .T. ) ;
#163 = VERTEX_POINT ( 'NONE', #230 ) ;
#164 = EDGE_CURVE ( 'NONE', #618, #662, #677, .T. ) ;
#165 = DIRECTION ( 'NONE',  ( 1.000000000000000000, 0.000000000000000000, 0.000000000000000000 ) ) ;
#166 = ORIENTED_EDGE ( 'NONE', *, *, #308, .T. ) ;
#167 = ORIENTED_EDGE ( 'NONE', *, *, #471, .T. ) ;
#168 = CARTESIAN_POINT ( 'NONE',  ( 17.99000000000000554, 12.00000000000000000, -12.95000000000000107 ) ) ;
#169 = ORIENTED_EDGE ( 'NONE', *, *, #706, .T. ) ;
#170 = EDGE_LOOP ( 'NONE', ( #150, #42, #6, #673 ) ) ;
#171 = AXIS2_PLACEMENT_3D ( 'NONE', #39, #760, #484 ) ;
#172 = CYLINDRICAL_SURFACE ( 'NONE', #707, 1.499999999999994449 ) ;
#173 = CIRCLE ( 'NONE', #479, 10.00000000000000000 ) ;
#174 = FACE_OUTER_BOUND ( 'NONE', #12, .T. ) ;
#175 = EDGE_CURVE ( 'NONE', #208, #613, #439, .T. ) ;
#176 = ORIENTED_EDGE ( 'NONE', *, *, #120, .F. ) ;
#177 = DIRECTION ( 'NONE',  ( 0.000000000000000000, 0.000000000000000000, -1.000000000000000000 ) ) ;
#178 = FACE_OUTER_BOUND ( 'NONE', #567, .T. ) ;
#179 = EDGE_LOOP ( 'NONE', ( #27, #322, #302, #574 ) ) ;
#180 = CARTESIAN_POINT ( 'NONE',  ( -31.96000000000000085, 0.000000000000000000, -24.00000000000000000 ) ) ;
#181 = LINE ( 'NONE', #693, #63 ) ;
#182 = VERTEX_POINT ( 'NONE', #103 ) ;
#183 = DIRECTION ( 'NONE',  ( 0.000000000000000000, -1.000000000000000000, 0.000000000000000000 ) ) ;
#184 = AXIS2_PLACEMENT_3D ( 'NONE', #60, #321, #824 ) ;
#185 = CARTESIAN_POINT ( 'NONE',  ( -31.96000000000000085, 12.00000000000000000, -22.50000000000000355 ) ) ;
#186 = AXIS2_PLACEMENT_3D ( 'NONE', #4, #218, #462 ) ;
#187 = FACE_OUTER_BOUND ( 'NONE', #799, .T. ) ;
#188 = ORIENTED_EDGE ( 'NONE', *, *, #162, .F. ) ;
#189 = CARTESIAN_POINT ( 'NONE',  ( -20.91000000000049397, 12.94999999999999929, -12.95000000000000107 ) ) ;
#190 = DIRECTION ( 'NONE',  ( 0.000000000000000000, 0.000000000000000000, -1.000000000000000000 ) ) ;
#191 = DIRECTION ( 'NONE',  ( 9.123360503285429670E-15, 0.000000000000000000, 1.000000000000000000 ) ) ;
#192 = VERTEX_POINT ( 'NONE', #168 ) ;
#193 = DIRECTION ( 'NONE',  ( 0.000000000000000000, 0.000000000000000000, -1.000000000000000000 ) ) ;
#194 = FACE_OUTER_BOUND ( 'NONE', #133, .T. ) ;
#195 = DIRECTION ( 'NONE',  ( 0.000000000000000000, 0.000000000000000000, -1.000000000000000000 ) ) ;
#196 = EDGE_CURVE ( 'NONE', #537, #1, #61, .T. ) ;
#197 = ORIENTED_EDGE ( 'NONE', *, *, #354, .F. ) ;
#198 = FACE_OUTER_BOUND ( 'NONE', #533, .T. ) ;
#199 = AXIS2_PLACEMENT_3D ( 'NONE', #733, #419, #165 ) ;
#200 = VECTOR ( 'NONE', #55, 1000.000000000000000 ) ;
#201 = DIRECTION ( 'NONE',  ( 0.000000000000000000, -1.000000000000000000, 0.000000000000000000 ) ) ;
#202 = CIRCLE ( 'NONE', #781, 1.499999999999987566 ) ;
#203 = VERTEX_POINT ( 'NONE', #620 ) ;
#204 = VECTOR ( 'NONE', #800, 1000.000000000000000 ) ;
#205 = DIRECTION ( 'NONE',  ( 0.000000000000000000, 0.000000000000000000, -1.000000000000000000 ) ) ;
#206 = PRODUCT_DEFINITION ( 'UNKNOWN', '', #741, #811 ) ;
#207 = DIRECTION ( 'NONE',  ( 0.000000000000000000, 0.000000000000000000, -1.000000000000000000 ) ) ;
#208 = VERTEX_POINT ( 'NONE', #424 ) ;
#209 = CARTESIAN_POINT ( 'NONE',  ( 19.03999999999999559, 0.000000000000000000, -25.49999999999999645 ) ) ;
#210 = EDGE_CURVE ( 'NONE', #621, #584, #346, .T. ) ;
#211 = DIRECTION ( 'NONE',  ( -1.000000000000000000, -0.000000000000000000, -0.000000000000000000 ) ) ;
#212 = EDGE_LOOP ( 'NONE', ( #413, #355 ) ) ;
#213 = DIRECTION ( 'NONE',  ( -1.000000000000000000, 0.000000000000000000, 0.000000000000000000 ) ) ;
#214 = ADVANCED_FACE ( 'NONE', ( #755 ), #431, .T. ) ;
#215 = DIRECTION ( 'NONE',  ( -0.000000000000000000, -1.000000000000000000, -0.000000000000000000 ) ) ;
#216 = EDGE_LOOP ( 'NONE', ( #566, #793, #242, #801 ) ) ;
#217 = AXIS2_PLACEMENT_3D ( 'NONE', #378, #382, #511 ) ;
#218 = DIRECTION ( 'NONE',  ( -0.000000000000000000, -1.000000000000000000, -0.000000000000000000 ) ) ;
#219 = VERTEX_POINT ( 'NONE', #557 ) ;
#220 = PRODUCT_DEFINITION_SHAPE ( 'NONE', 'NONE',  #206 ) ;
#221 = FACE_OUTER_BOUND ( 'NONE', #72, .T. ) ;
#222 = VERTEX_POINT ( 'NONE', #691 ) ;
#223 = EDGE_LOOP ( 'NONE', ( #501, #122 ) ) ;
#224 = EDGE_CURVE ( 'NONE', #613, #295, #616, .T. ) ;
#225 = VECTOR ( 'NONE', #463, 1000.000000000000000 ) ;
#226 = DIRECTION ( 'NONE',  ( 0.000000000000000000, 0.000000000000000000, -1.000000000000000000 ) ) ;
#227 = EDGE_CURVE ( 'NONE', #301, #433, #365, .T. ) ;
#228 = CARTESIAN_POINT ( 'NONE',  ( -31.96000000000000085, 12.00000000000000000, -24.00000000000000000 ) ) ;
#229 = ORIENTED_EDGE ( 'NONE', *, *, #38, .T. ) ;
#230 = CARTESIAN_POINT ( 'NONE',  ( -31.95999999999999375, 12.00000000000000000, 22.50000000000000355 ) ) ;
#231 = DIRECTION ( 'NONE',  ( -0.000000000000000000, -0.000000000000000000, -1.000000000000000000 ) ) ;
#232 = ADVANCED_FACE ( 'NONE', ( #623 ), #305, .F. ) ;
#233 = CIRCLE ( 'NONE', #277, 10.00000000000000000 ) ;
#234 = ORIENTED_EDGE ( 'NONE', *, *, #83, .T. ) ;
#235 = ORIENTED_EDGE ( 'NONE', *, *, #535, .T. ) ;
#236 = CIRCLE ( 'NONE', #113, 1.499999999999997780 ) ;
#237 = VECTOR ( 'NONE', #85, 1000.000000000000000 ) ;
#238 = CARTESIAN_POINT ( 'NONE',  ( 19.04000000000000981, 12.00000000000000000, 24.00000000000000000 ) ) ;
#239 = CARTESIAN_POINT ( 'NONE',  ( -34.96000000000049113, 0.000000000000000000, -27.00000000000000000 ) ) ;
#240 = ORIENTED_EDGE ( 'NONE', *, *, #120, .T. ) ;
#241 = DIRECTION ( 'NONE',  ( 0.000000000000000000, 0.000000000000000000, -1.000000000000000000 ) ) ;
#242 = ORIENTED_EDGE ( 'NONE', *, *, #83, .F. ) ;
#243 = DIRECTION ( 'NONE',  ( -0.000000000000000000, -1.000000000000000000, -0.000000000000000000 ) ) ;
#244 = CARTESIAN_POINT ( 'NONE',  ( 7.990000000000003766, 12.94999999999999929, -22.94999999999999929 ) ) ;
#245 = FACE_OUTER_BOUND ( 'NONE', #52, .T. ) ;
#246 = EDGE_CURVE ( 'NONE', #584, #687, #435, .T. ) ;
#247 = DIRECTION ( 'NONE',  ( -0.000000000000000000, -1.000000000000000000, -0.000000000000000000 ) ) ;
#248 = AXIS2_PLACEMENT_3D ( 'NONE', #518, #137, #655 ) ;
#249 = CARTESIAN_POINT ( 'NONE',  ( -31.96000000000000085, -1.371604415045033344E-15, -25.49999999999998934 ) ) ;
#250 = VECTOR ( 'NONE', #513, 1000.000000000000000 ) ;
#251 = DIRECTION ( 'NONE',  ( 0.000000000000000000, 0.000000000000000000, -1.000000000000000000 ) ) ;
#252 = ORIENTED_EDGE ( 'NONE', *, *, #292, .T. ) ;
#253 = EDGE_CURVE ( 'NONE', #617, #101, #717, .T. ) ;
#254 = DIRECTION ( 'NONE',  ( 0.000000000000000000, -1.000000000000000000, 0.000000000000000000 ) ) ;
#255 = PLANE ( 'NONE',  #184 ) ;
#256 = ORIENTED_EDGE ( 'NONE', *, *, #349, .F. ) ;
#257 = DIRECTION ( 'NONE',  ( -1.000000000000000000, -0.000000000000000000, -0.000000000000000000 ) ) ;
#258 = PLANE ( 'NONE',  #132 ) ;
#259 = EDGE_CURVE ( 'NONE', #163, #417, #263, .T. ) ;
#260 = CARTESIAN_POINT ( 'NONE',  ( 19.04000000000000981, 0.000000000000000000, 22.50000000000000711 ) ) ;
#261 = VERTEX_POINT ( 'NONE', #445 ) ;
#262 = DIRECTION ( 'NONE',  ( -0.000000000000000000, -1.000000000000000000, -0.000000000000000000 ) ) ;
#263 = LINE ( 'NONE', #143, #814 ) ;
#264 = DIRECTION ( 'NONE',  ( -0.000000000000000000, -1.000000000000000000, -0.000000000000000000 ) ) ;
#265 = CLOSED_SHELL ( 'NONE', ( #827, #14, #232, #719, #817, #106, #619, #672, #414, #44, #412, #154, #480, #461, #508, #102, #658, #767, #430, #615, #214, #609, #336, #87, #96 ) ) ;
#266 = CIRCLE ( 'NONE', #100, 1.499999999999997780 ) ;
#267 = CARTESIAN_POINT ( 'NONE',  ( 17.99000000000000554, 12.94999999999999929, -12.95000000000000107 ) ) ;
#268 = ORIENTED_EDGE ( 'NONE', *, *, #483, .F. ) ;
#269 = AXIS2_PLACEMENT_3D ( 'NONE', #339, #215, #725 ) ;
#270 = CARTESIAN_POINT ( 'NONE',  ( -31.96000000000000085, -1.371604415045033344E-15, -24.00000000000000000 ) ) ;
#271 = CARTESIAN_POINT ( 'NONE',  ( -31.96000000000000085, -1.371604415045033344E-15, -24.00000000000000000 ) ) ;
#272 = LINE ( 'NONE', #159, #237 ) ;
#273 = EDGE_LOOP ( 'NONE', ( #610, #26 ) ) ;
#274 = DIRECTION ( 'NONE',  ( -0.000000000000000000, -1.000000000000000000, -0.000000000000000000 ) ) ;
#275 = DIRECTION ( 'NONE',  ( 0.000000000000000000, 0.000000000000000000, -1.000000000000000000 ) ) ;
#276 = ORIENTED_EDGE ( 'NONE', *, *, #640, .T. ) ;
#277 = AXIS2_PLACEMENT_3D ( 'NONE', #736, #797, #95 ) ;
#278 = FACE_OUTER_BOUND ( 'NONE', #145, .T. ) ;
#279 = CARTESIAN_POINT ( 'NONE',  ( 22.04000000000000270, 12.00000000000000000, 27.00000000000000000 ) ) ;
#280 = ORIENTED_EDGE ( 'NONE', *, *, #833, .T. ) ;
#281 = AXIS2_PLACEMENT_3D ( 'NONE', #121, #51, #447 ) ;
#282 = VECTOR ( 'NONE', #274, 1000.000000000000000 ) ;
#283 = DIRECTION ( 'NONE',  ( -1.000000000000000000, 0.000000000000000000, 1.511741591265191831E-16 ) ) ;
#284 = EDGE_CURVE ( 'NONE', #375, #497, #45, .T. ) ;
#285 = ORIENTED_EDGE ( 'NONE', *, *, #581, .F. ) ;
#286 = CARTESIAN_POINT ( 'NONE',  ( 17.99000000000000554, 12.94999999999999929, -22.94999999999999929 ) ) ;
#287 = EDGE_CURVE ( 'NONE', #219, #505, #147, .T. ) ;
#288 = ORIENTED_EDGE ( 'NONE', *, *, #364, .T. ) ;
#289 = DIRECTION ( 'NONE',  ( 0.000000000000000000, 0.000000000000000000, -1.000000000000000000 ) ) ;
#290 = EDGE_LOOP ( 'NONE', ( #659, #770, #285, #731 ) ) ;
#291 = VECTOR ( 'NONE', #525, 1000.000000000000000 ) ;
#292 = EDGE_CURVE ( 'NONE', #512, #101, #453, .T. ) ;
#293 = VECTOR ( 'NONE', #311, 1000.000000000000000 ) ;
#294 = FACE_OUTER_BOUND ( 'NONE', #347, .T. ) ;
#295 = VERTEX_POINT ( 'NONE', #634 ) ;
#296 = DIRECTION ( 'NONE',  ( 0.000000000000000000, -1.000000000000000000, 0.000000000000000000 ) ) ;
#297 = CARTESIAN_POINT ( 'NONE',  ( 0.000000000000000000, 0.000000000000000000, -2.500000000000000000 ) ) ;
#298 = ORIENTED_EDGE ( 'NONE', *, *, #632, .T. ) ;
#299 = DIRECTION ( 'NONE',  ( 0.000000000000000000, 0.000000000000000000, -1.000000000000000000 ) ) ;
#300 = CARTESIAN_POINT ( 'NONE',  ( -30.91000000000048686, 12.94999999999999929, 22.94999999999999929 ) ) ;
#301 = VERTEX_POINT ( 'NONE', #509 ) ;
#302 = ORIENTED_EDGE ( 'NONE', *, *, #551, .F. ) ;
#303 = AXIS2_PLACEMENT_3D ( 'NONE', #573, #392, #195 ) ;
#304 = VECTOR ( 'NONE', #538, 1000.000000000000000 ) ;
#305 = CYLINDRICAL_SURFACE ( 'NONE', #79, 1.499999999999994449 ) ;
#306 = VECTOR ( 'NONE', #231, 1000.000000000000000 ) ;
#307 = DIRECTION ( 'NONE',  ( -0.000000000000000000, -1.000000000000000000, -0.000000000000000000 ) ) ;
#308 = EDGE_CURVE ( 'NONE', #301, #163, #161, .T. ) ;
#309 = ORIENTED_EDGE ( 'NONE', *, *, #136, .T. ) ;
#310 = DIRECTION ( 'NONE',  ( -0.000000000000000000, -1.000000000000000000, -0.000000000000000000 ) ) ;
#311 = DIRECTION ( 'NONE',  ( -1.000000000000000000, -0.000000000000000000, -0.000000000000000000 ) ) ;
#312 = FACE_BOUND ( 'NONE', #223, .T. ) ;
#313 = EDGE_CURVE ( 'NONE', #726, #596, #612, .T. ) ;
#314 = DIRECTION ( 'NONE',  ( -0.000000000000000000, -1.000000000000000000, -0.000000000000000000 ) ) ;
#315 = CARTESIAN_POINT ( 'NONE',  ( -34.96000000000049113, 0.000000000000000000, -27.00000000000000000 ) ) ;
#316 = FACE_OUTER_BOUND ( 'NONE', #775, .T. ) ;
#317 = ORIENTED_EDGE ( 'NONE', *, *, #798, .T. ) ;
#318 = AXIS2_PLACEMENT_3D ( 'NONE', #520, #769, #697 ) ;
#319 = DIRECTION ( 'NONE',  ( 1.000000000000000000, 0.000000000000000000, 0.000000000000000000 ) ) ;
#320 = VECTOR ( 'NONE', #528, 1000.000000000000000 ) ;
#321 = DIRECTION ( 'NONE',  ( 0.000000000000000000, 1.000000000000000000, 0.000000000000000000 ) ) ;
#322 = ORIENTED_EDGE ( 'NONE', *, *, #698, .F. ) ;
#323 = CARTESIAN_POINT ( 'NONE',  ( -31.95999999999999375, 0.000000000000000000, 24.00000000000000000 ) ) ;
#324 = EDGE_CURVE ( 'NONE', #448, #208, #395, .T. ) ;
#325 = CYLINDRICAL_SURFACE ( 'NONE', #9, 1.499999999999994449 ) ;
#326 = DIRECTION ( 'NONE',  ( 0.000000000000000000, -1.000000000000000000, 0.000000000000000000 ) ) ;
#327 = ORIENTED_EDGE ( 'NONE', *, *, #372, .T. ) ;
#328 = DIRECTION ( 'NONE',  ( -0.000000000000000000, -1.000000000000000000, -0.000000000000000000 ) ) ;
#329 = DIRECTION ( 'NONE',  ( -0.000000000000000000, -1.000000000000000000, -0.000000000000000000 ) ) ;
#330 = DIRECTION ( 'NONE',  ( -0.000000000000000000, -1.000000000000000000, -0.000000000000000000 ) ) ;
#331 = DIRECTION ( 'NONE',  ( -1.000000000000000000, -0.000000000000000000, -0.000000000000000000 ) ) ;
#332 = ORIENTED_EDGE ( 'NONE', *, *, #698, .T. ) ;
#333 = FACE_BOUND ( 'NONE', #212, .T. ) ;
#334 = CIRCLE ( 'NONE', #665, 2.500000000000000000 ) ;
#335 = VECTOR ( 'NONE', #141, 1000.000000000000000 ) ;
#336 = ADVANCED_FACE ( 'NONE', ( #128 ), #766, .T. ) ;
#337 = ORIENTED_EDGE ( 'NONE', *, *, #324, .T. ) ;
#338 = FACE_BOUND ( 'NONE', #560, .T. ) ;
#339 = CARTESIAN_POINT ( 'NONE',  ( 19.04000000000000981, 12.00000000000000000, 24.00000000000000000 ) ) ;
#340 = VERTEX_POINT ( 'NONE', #366 ) ;
#341 = EDGE_CURVE ( 'NONE', #579, #1, #272, .T. ) ;
#342 = DIRECTION ( 'NONE',  ( -1.000000000000000000, 0.000000000000000000, -0.000000000000000000 ) ) ;
#343 = ORIENTED_EDGE ( 'NONE', *, *, #175, .F. ) ;
#344 = EDGE_CURVE ( 'NONE', #383, #67, #603, .T. ) ;
#345 = CARTESIAN_POINT ( 'NONE',  ( 19.03999999999999559, -1.371604415045033344E-15, -24.00000000000000000 ) ) ;
#346 = CIRCLE ( 'NONE', #171, 9.999999999999998224 ) ;
#347 = EDGE_LOOP ( 'NONE', ( #599, #704, #317, #429 ) ) ;
#348 = AXIS2_PLACEMENT_3D ( 'NONE', #323, #638, #64 ) ;
#349 = EDGE_CURVE ( 'NONE', #222, #383, #468, .T. ) ;
#350 = EDGE_LOOP ( 'NONE', ( #785, #176, #629, #604 ) ) ;
#351 = APPLICATION_PROTOCOL_DEFINITION ( 'draft international standard', 'automotive_design', 1998, #661 ) ;
#352 = ORIENTED_EDGE ( 'NONE', *, *, #227, .T. ) ;
#353 = ORIENTED_EDGE ( 'NONE', *, *, #754, .F. ) ;
#354 = EDGE_CURVE ( 'NONE', #208, #192, #475, .T. ) ;
#355 = ORIENTED_EDGE ( 'NONE', *, *, #754, .T. ) ;
#356 = AXIS2_PLACEMENT_3D ( 'NONE', #399, #262, #523 ) ;
#357 = DIRECTION ( 'NONE',  ( -0.000000000000000000, -1.000000000000000000, -0.000000000000000000 ) ) ;
#358 = DIRECTION ( 'NONE',  ( -0.000000000000000000, -1.000000000000000000, -0.000000000000000000 ) ) ;
#359 = DIRECTION ( 'NONE',  ( -0.000000000000000000, -1.000000000000000000, -0.000000000000000000 ) ) ;
#360 = LINE ( 'NONE', #37, #282 ) ;
#361 = DIRECTION ( 'NONE',  ( -0.000000000000000000, -1.000000000000000000, -0.000000000000000000 ) ) ;
#362 = ORIENTED_EDGE ( 'NONE', *, *, #341, .F. ) ;
#363 = VERTEX_POINT ( 'NONE', #5 ) ;
#364 = EDGE_CURVE ( 'NONE', #219, #203, #598, .T. ) ;
#365 = LINE ( 'NONE', #813, #386 ) ;
#366 = CARTESIAN_POINT ( 'NONE',  ( -20.91000000000049397, 12.00000000000000000, -22.94999999999999929 ) ) ;
#367 = CARTESIAN_POINT ( 'NONE',  ( -20.91000000000049042, 12.94999999999999929, 12.94999999999999929 ) ) ;
#368 = ORIENTED_EDGE ( 'NONE', *, *, #284, .T. ) ;
#369 = COLOUR_RGB ( '',0.7921568627450980005, 0.8196078431372548767, 0.9333333333333333481 ) ;
#370 = CARTESIAN_POINT ( 'NONE',  ( 7.990000000000012648, 12.94999999999999929, 12.94999999999999574 ) ) ;
#371 = PRESENTATION_LAYER_ASSIGNMENT (  '', '', ( #115 ) ) ;
#372 = EDGE_CURVE ( 'NONE', #192, #726, #588, .T. ) ;
#373 = DIRECTION ( 'NONE',  ( 0.000000000000000000, 1.000000000000000000, 0.000000000000000000 ) ) ;
#374 = ORIENTED_EDGE ( 'NONE', *, *, #434, .F. ) ;
#375 = VERTEX_POINT ( 'NONE', #784 ) ;
#376 = CARTESIAN_POINT ( 'NONE',  ( -31.95999999999999375, 12.00000000000000000, 24.00000000000000000 ) ) ;
#377 = CARTESIAN_POINT ( 'NONE',  ( 19.03999999999999559, 12.00000000000000000, -22.50000000000000355 ) ) ;
#378 = CARTESIAN_POINT ( 'NONE',  ( -34.96000000000049113, 12.00000000000000000, -27.00000000000000000 ) ) ;
#379 = ORIENTED_EDGE ( 'NONE', *, *, #546, .F. ) ;
#380 = LINE ( 'NONE', #57, #250 ) ;
#381 = DIRECTION ( 'NONE',  ( 0.000000000000000000, -1.000000000000000000, 0.000000000000000000 ) ) ;
#382 = DIRECTION ( 'NONE',  ( 0.000000000000000000, 0.000000000000000000, 1.000000000000000000 ) ) ;
#383 = VERTEX_POINT ( 'NONE', #700 ) ;
#384 = FACE_OUTER_BOUND ( 'NONE', #650, .T. ) ;
#385 = EDGE_CURVE ( 'NONE', #728, #621, #380, .T. ) ;
#386 = VECTOR ( 'NONE', #738, 1000.000000000000000 ) ;
#387 = DIRECTION ( 'NONE',  ( 0.000000000000000000, -1.000000000000000000, 0.000000000000000000 ) ) ;
#388 = CIRCLE ( 'NONE', #745, 1.499999999999997780 ) ;
#389 = FACE_OUTER_BOUND ( 'NONE', #216, .T. ) ;
#390 = AXIS2_PLACEMENT_3D ( 'NONE', #367, #254, #820 ) ;
#391 = APPLICATION_CONTEXT ( 'automotive_design' ) ;
#392 = DIRECTION ( 'NONE',  ( 0.000000000000000000, -1.000000000000000000, 0.000000000000000000 ) ) ;
#393 = ORIENTED_EDGE ( 'NONE', *, *, #24, .T. ) ;
#394 = LINE ( 'NONE', #585, #335 ) ;
#395 = LINE ( 'NONE', #3, #724 ) ;
#396 =( NAMED_UNIT ( * ) PLANE_ANGLE_UNIT ( ) SI_UNIT ( $, .RADIAN. ) );
#397 = CARTESIAN_POINT ( 'NONE',  ( 19.04000000000000981, 0.000000000000000000, 25.49999999999999645 ) ) ;
#398 = ORIENTED_EDGE ( 'NONE', *, *, #646, .T. ) ;
#399 = CARTESIAN_POINT ( 'NONE',  ( -31.96000000000000085, 0.000000000000000000, -24.00000000000000000 ) ) ;
#400 = EDGE_LOOP ( 'NONE', ( #160, #140 ) ) ;
#401 = CYLINDRICAL_SURFACE ( 'NONE', #348, 1.499999999999994449 ) ;
#402 = AXIS2_PLACEMENT_3D ( 'NONE', #345, #358, #31 ) ;
#403 = CARTESIAN_POINT ( 'NONE',  ( 19.03999999999999559, -1.371604415045033344E-15, -24.00000000000000000 ) ) ;
#404 = FILL_AREA_STYLE_COLOUR ( '', #369 ) ;
#405 = EDGE_CURVE ( 'NONE', #469, #537, #360, .T. ) ;
#406 = AXIS2_PLACEMENT_3D ( 'NONE', #271, #782, #713 ) ;
#407 = CIRCLE ( 'NONE', #186, 10.00000000000000000 ) ;
#408 = ORIENTED_EDGE ( 'NONE', *, *, #24, .F. ) ;
#409 = FACE_BOUND ( 'NONE', #111, .T. ) ;
#410 = FACE_OUTER_BOUND ( 'NONE', #757, .T. ) ;
#411 = ORIENTED_EDGE ( 'NONE', *, *, #787, .T. ) ;
#412 = ADVANCED_FACE ( 'NONE', ( #333, #135, #409, #338, #705, #127 ), #594, .T. ) ;
#413 = ORIENTED_EDGE ( 'NONE', *, *, #498, .T. ) ;
#414 = ADVANCED_FACE ( 'NONE', ( #723 ), #465, .F. ) ;
#415 = CARTESIAN_POINT ( 'NONE',  ( 7.990000000000003766, 12.00000000000000000, -22.94999999999999929 ) ) ;
#416 = AXIS2_PLACEMENT_3D ( 'NONE', #443, #694, #835 ) ;
#417 = VERTEX_POINT ( 'NONE', #590 ) ;
#418 =( GEOMETRIC_REPRESENTATION_CONTEXT ( 3 ) GLOBAL_UNCERTAINTY_ASSIGNED_CONTEXT ( ( #109 ) ) GLOBAL_UNIT_ASSIGNED_CONTEXT ( ( #657, #396, #11 ) ) REPRESENTATION_CONTEXT ( 'NONE', 'WORKASPACE' ) );
#419 = DIRECTION ( 'NONE',  ( 0.000000000000000000, 0.000000000000000000, 1.000000000000000000 ) ) ;
#420 = ORIENTED_EDGE ( 'NONE', *, *, #581, .T. ) ;
#421 = CYLINDRICAL_SURFACE ( 'NONE', #436, 1.499999999999994449 ) ;
#422 = ORIENTED_EDGE ( 'NONE', *, *, #692, .T. ) ;
#423 = ORIENTED_EDGE ( 'NONE', *, *, #196, .F. ) ;
#424 = CARTESIAN_POINT ( 'NONE',  ( 17.99000000000001265, 12.00000000000000000, 12.94999999999999396 ) ) ;
#425 = ORIENTED_EDGE ( 'NONE', *, *, #535, .F. ) ;
#426 = AXIS2_PLACEMENT_3D ( 'NONE', #626, #361, #568 ) ;
#427 = AXIS2_PLACEMENT_3D ( 'NONE', #189, #387, #564 ) ;
#428 = DIRECTION ( 'NONE',  ( 0.000000000000000000, 1.000000000000000000, 0.000000000000000000 ) ) ;
#429 = ORIENTED_EDGE ( 'NONE', *, *, #29, .F. ) ;
#430 = ADVANCED_FACE ( 'NONE', ( #198 ), #457, .F. ) ;
#431 = CYLINDRICAL_SURFACE ( 'NONE', #539, 10.00000000000000000 ) ;
#432 = CARTESIAN_POINT ( 'NONE',  ( -31.95999999999999375, -1.371604415045033344E-15, 24.00000000000000000 ) ) ;
#433 = VERTEX_POINT ( 'NONE', #73 ) ;
#434 = EDGE_CURVE ( 'NONE', #261, #512, #530, .T. ) ;
#435 = LINE ( 'NONE', #685, #21 ) ;
#436 = AXIS2_PLACEMENT_3D ( 'NONE', #481, #605, #810 ) ;
#437 = DIRECTION ( 'NONE',  ( -0.000000000000000000, 1.000000000000000000, -0.000000000000000000 ) ) ;
#438 = ORIENTED_EDGE ( 'NONE', *, *, #136, .F. ) ;
#439 = CIRCLE ( 'NONE', #426, 10.00000000000000178 ) ;
#440 = DIRECTION ( 'NONE',  ( 0.000000000000000000, 0.000000000000000000, -1.000000000000000000 ) ) ;
#441 = EDGE_CURVE ( 'NONE', #687, #613, #394, .T. ) ;
#442 = CARTESIAN_POINT ( 'NONE',  ( 0.000000000000000000, 12.94999999999999929, -2.500000000000000000 ) ) ;
#443 = CARTESIAN_POINT ( 'NONE',  ( -30.91000000000049397, 12.94999999999999929, -22.94999999999999929 ) ) ;
#444 = ORIENTED_EDGE ( 'NONE', *, *, #787, .F. ) ;
#445 = CARTESIAN_POINT ( 'NONE',  ( 19.03999999999999559, 12.00000000000000000, -25.50000000000000000 ) ) ;
#446 = DIRECTION ( 'NONE',  ( 9.123360503285429670E-15, 0.000000000000000000, 1.000000000000000000 ) ) ;
#447 = DIRECTION ( 'NONE',  ( 0.000000000000000000, 0.000000000000000000, -1.000000000000000000 ) ) ;
#448 = VERTEX_POINT ( 'NONE', #7 ) ;
#449 = CARTESIAN_POINT ( 'NONE',  ( 3.061616997868382648E-16, 0.000000000000000000, 2.500000000000000000 ) ) ;
#450 = LINE ( 'NONE', #578, #491 ) ;
#451 = VERTEX_POINT ( 'NONE', #837 ) ;
#452 = DIRECTION ( 'NONE',  ( 1.000000000000000000, 0.000000000000000000, -0.000000000000000000 ) ) ;
#453 = CIRCLE ( 'NONE', #89, 1.499999999999987566 ) ;
#454 = MECHANICAL_DESIGN_GEOMETRIC_PRESENTATION_REPRESENTATION (  '', ( #115 ), #418 ) ;
#455 = CARTESIAN_POINT ( 'NONE',  ( 7.990000000000003766, 12.94999999999999929, -12.94999999999999929 ) ) ;
#456 = ORIENTED_EDGE ( 'NONE', *, *, #441, .F. ) ;
#457 = PLANE ( 'NONE',  #507 ) ;
#458 = DIRECTION ( 'NONE',  ( -0.000000000000000000, -1.000000000000000000, -0.000000000000000000 ) ) ;
#459 = ORIENTED_EDGE ( 'NONE', *, *, #224, .F. ) ;
#460 = DIRECTION ( 'NONE',  ( -0.000000000000000000, -1.000000000000000000, -0.000000000000000000 ) ) ;
#461 = ADVANCED_FACE ( 'NONE', ( #384 ), #2, .F. ) ;
#462 = DIRECTION ( 'NONE',  ( 0.000000000000000000, 0.000000000000000000, 1.000000000000000000 ) ) ;
#463 = DIRECTION ( 'NONE',  ( 1.000000000000000000, 0.000000000000000000, 0.000000000000000000 ) ) ;
#464 = ORIENTED_EDGE ( 'NONE', *, *, #405, .T. ) ;
#465 = PLANE ( 'NONE',  #550 ) ;
#466 = SURFACE_STYLE_USAGE ( .BOTH. , #15 ) ;
#467 = EDGE_CURVE ( 'NONE', #497, #375, #832, .T. ) ;
#468 = LINE ( 'NONE', #536, #225 ) ;
#469 = VERTEX_POINT ( 'NONE', #146 ) ;
#470 = FACE_OUTER_BOUND ( 'NONE', #290, .T. ) ;
#471 = EDGE_CURVE ( 'NONE', #222, #363, #790, .T. ) ;
#472 = CARTESIAN_POINT ( 'NONE',  ( -34.96000000000049113, 12.00000000000000000, -27.00000000000000000 ) ) ;
#473 = VERTEX_POINT ( 'NONE', #13 ) ;
#474 = CYLINDRICAL_SURFACE ( 'NONE', #802, 2.500000000000000000 ) ;
#475 = LINE ( 'NONE', #730, #666 ) ;
#476 = ORIENTED_EDGE ( 'NONE', *, *, #29, .T. ) ;
#477 = CIRCLE ( 'NONE', #747, 1.499999999999987566 ) ;
#478 = ORIENTED_EDGE ( 'NONE', *, *, #341, .T. ) ;
#479 = AXIS2_PLACEMENT_3D ( 'NONE', #635, #686, #825 ) ;
#480 = ADVANCED_FACE ( 'NONE', ( #716 ), #401, .F. ) ;
#481 = CARTESIAN_POINT ( 'NONE',  ( 19.04000000000000981, 0.000000000000000000, 24.00000000000000000 ) ) ;
#482 = ORIENTED_EDGE ( 'NONE', *, *, #706, .F. ) ;
#483 = EDGE_CURVE ( 'NONE', #836, #340, #151, .T. ) ;
#484 = DIRECTION ( 'NONE',  ( 0.000000000000000000, 0.000000000000000000, 1.000000000000000000 ) ) ;
#485 = DIRECTION ( 'NONE',  ( -0.000000000000000000, -1.000000000000000000, -0.000000000000000000 ) ) ;
#486 = EDGE_LOOP ( 'NONE', ( #490, #62, #482, #56 ) ) ;
#487 = FACE_OUTER_BOUND ( 'NONE', #831, .T. ) ;
#488 = PLANE ( 'NONE',  #602 ) ;
#489 = EDGE_CURVE ( 'NONE', #728, #182, #517, .T. ) ;
#490 = ORIENTED_EDGE ( 'NONE', *, *, #791, .T. ) ;
#491 = VECTOR ( 'NONE', #191, 1000.000000000000000 ) ;
#492 = ORIENTED_EDGE ( 'NONE', *, *, #287, .T. ) ;
#493 = AXIS2_PLACEMENT_3D ( 'NONE', #660, #153, #84 ) ;
#494 = VECTOR ( 'NONE', #572, 1000.000000000000000 ) ;
#495 = CARTESIAN_POINT ( 'NONE',  ( -31.96000000000000085, 12.00000000000000000, -24.00000000000000000 ) ) ;
#496 = LINE ( 'NONE', #315, #293 ) ;
#497 = VERTEX_POINT ( 'NONE', #249 ) ;
#498 = EDGE_CURVE ( 'NONE', #261, #617, #266, .T. ) ;
#499 = DIRECTION ( 'NONE',  ( -0.000000000000000000, -1.000000000000000000, -0.000000000000000000 ) ) ;
#500 = CYLINDRICAL_SURFACE ( 'NONE', #656, 1.499999999999994449 ) ;
#501 = ORIENTED_EDGE ( 'NONE', *, *, #76, .F. ) ;
#502 = CARTESIAN_POINT ( 'NONE',  ( 0.000000000000000000, 0.000000000000000000, 0.000000000000000000 ) ) ;
#503 = CARTESIAN_POINT ( 'NONE',  ( -34.96000000000049113, 12.00000000000000000, -27.00000000000000000 ) ) ;
#504 = LINE ( 'NONE', #515, #130 ) ;
#505 = VERTEX_POINT ( 'NONE', #768 ) ;
#506 = AXIS2_PLACEMENT_3D ( 'NONE', #495, #310, #751 ) ;
#507 = AXIS2_PLACEMENT_3D ( 'NONE', #78, #712, #452 ) ;
#508 = ADVANCED_FACE ( 'NONE', ( #178 ), #500, .F. ) ;
#509 = CARTESIAN_POINT ( 'NONE',  ( -31.95999999999999375, 12.00000000000000000, 25.50000000000000000 ) ) ;
#510 = DIRECTION ( 'NONE',  ( -0.000000000000000000, -1.000000000000000000, -0.000000000000000000 ) ) ;
#511 = DIRECTION ( 'NONE',  ( 1.000000000000000000, 0.000000000000000000, -0.000000000000000000 ) ) ;
#512 = VERTEX_POINT ( 'NONE', #46 ) ;
#513 = DIRECTION ( 'NONE',  ( 1.511741591265191585E-16, 0.000000000000000000, 1.000000000000000000 ) ) ;
#514 = DIRECTION ( 'NONE',  ( 0.000000000000000000, -0.000000000000000000, 1.000000000000000000 ) ) ;
#515 = CARTESIAN_POINT ( 'NONE',  ( -30.91000000000049397, 12.00000000000000000, -22.94999999999999929 ) ) ;
#516 = ORIENTED_EDGE ( 'NONE', *, *, #483, .T. ) ;
#517 = LINE ( 'NONE', #776, #494 ) ;
#518 = CARTESIAN_POINT ( 'NONE',  ( 7.990000000000003766, 12.94999999999999929, -12.94999999999999929 ) ) ;
#519 = CARTESIAN_POINT ( 'NONE',  ( -34.96000000000000085, 12.00000000000000000, 27.00000000000000000 ) ) ;
#520 = CARTESIAN_POINT ( 'NONE',  ( 19.04000000000000981, -1.371604415045033344E-15, 24.00000000000000000 ) ) ;
#521 = EDGE_CURVE ( 'NONE', #417, #433, #202, .T. ) ;
#522 = ORIENTED_EDGE ( 'NONE', *, *, #498, .F. ) ;
#523 = DIRECTION ( 'NONE',  ( 0.000000000000000000, 0.000000000000000000, -1.000000000000000000 ) ) ;
#524 = VECTOR ( 'NONE', #123, 1000.000000000000000 ) ;
#525 = DIRECTION ( 'NONE',  ( -0.000000000000000000, -1.000000000000000000, -0.000000000000000000 ) ) ;
#526 = LINE ( 'NONE', #642, #734 ) ;
#527 = AXIS2_PLACEMENT_3D ( 'NONE', #156, #81, #275 ) ;
#528 = DIRECTION ( 'NONE',  ( -0.000000000000000000, 1.000000000000000000, -0.000000000000000000 ) ) ;
#529 = ORIENTED_EDGE ( 'NONE', *, *, #364, .F. ) ;
#530 = LINE ( 'NONE', #209, #690 ) ;
#531 = EDGE_CURVE ( 'NONE', #451, #363, #569, .T. ) ;
#532 = CARTESIAN_POINT ( 'NONE',  ( 19.03999999999999559, 0.000000000000000000, -22.50000000000000711 ) ) ;
#533 = EDGE_LOOP ( 'NONE', ( #516, #332, #17, #229 ) ) ;
#534 = CARTESIAN_POINT ( 'NONE',  ( 22.04000000000000270, 12.00000000000000000, -27.00000000000000000 ) ) ;
#535 = EDGE_CURVE ( 'NONE', #117, #621, #624, .T. ) ;
#536 = CARTESIAN_POINT ( 'NONE',  ( -34.96000000000000085, 12.00000000000000000, 27.00000000000000000 ) ) ;
#537 = VERTEX_POINT ( 'NONE', #449 ) ;
#538 = DIRECTION ( 'NONE',  ( -0.000000000000000000, 1.000000000000000000, -0.000000000000000000 ) ) ;
#539 = AXIS2_PLACEMENT_3D ( 'NONE', #370, #183, #107 ) ;
#540 = VECTOR ( 'NONE', #702, 1000.000000000000000 ) ;
#541 = ORIENTED_EDGE ( 'NONE', *, *, #18, .T. ) ;
#542 = DIRECTION ( 'NONE',  ( -0.000000000000000000, -1.000000000000000000, -0.000000000000000000 ) ) ;
#543 = ORIENTED_EDGE ( 'NONE', *, *, #76, .T. ) ;
#544 = LINE ( 'NONE', #554, #10 ) ;
#545 = EDGE_LOOP ( 'NONE', ( #309, #32 ) ) ;
#546 = EDGE_CURVE ( 'NONE', #505, #451, #496, .T. ) ;
#547 = CIRCLE ( 'NONE', #402, 1.499999999999987566 ) ;
#548 = AXIS2_PLACEMENT_3D ( 'NONE', #748, #359, #226 ) ;
#549 = ORIENTED_EDGE ( 'NONE', *, *, #308, .F. ) ;
#550 = AXIS2_PLACEMENT_3D ( 'NONE', #534, #213, #645 ) ;
#551 = EDGE_CURVE ( 'NONE', #182, #340, #173, .T. ) ;
#552 = ORIENTED_EDGE ( 'NONE', *, *, #196, .T. ) ;
#553 = EDGE_CURVE ( 'NONE', #469, #579, #80, .T. ) ;
#554 = CARTESIAN_POINT ( 'NONE',  ( -31.96000000000000085, 0.000000000000000000, -25.49999999999999645 ) ) ;
#555 = ORIENTED_EDGE ( 'NONE', *, *, #324, .F. ) ;
#556 =( GEOMETRIC_REPRESENTATION_CONTEXT ( 3 ) GLOBAL_UNCERTAINTY_ASSIGNED_CONTEXT ( ( #718 ) ) GLOBAL_UNIT_ASSIGNED_CONTEXT ( ( #739, #676, #91 ) ) REPRESENTATION_CONTEXT ( 'NONE', 'WORKASPACE' ) );
#557 = CARTESIAN_POINT ( 'NONE',  ( 22.04000000000000270, 12.00000000000000000, -27.00000000000000000 ) ) ;
#558 = EDGE_CURVE ( 'NONE', #363, #67, #181, .T. ) ;
#559 = CARTESIAN_POINT ( 'NONE',  ( -20.91000000000049042, 12.94999999999999929, 22.94999999999999929 ) ) ;
#560 = EDGE_LOOP ( 'NONE', ( #735, #670 ) ) ;
#561 = VECTOR ( 'NONE', #830, 1000.000000000000000 ) ;
#562 = AXIS2_PLACEMENT_3D ( 'NONE', #651, #68, #653 ) ;
#563 = DIRECTION ( 'NONE',  ( -0.000000000000000000, -1.000000000000000000, -0.000000000000000000 ) ) ;
#564 = DIRECTION ( 'NONE',  ( 0.000000000000000000, 0.000000000000000000, -1.000000000000000000 ) ) ;
#565 = DIRECTION ( 'NONE',  ( 0.000000000000000000, 0.000000000000000000, -1.000000000000000000 ) ) ;
#566 = ORIENTED_EDGE ( 'NONE', *, *, #531, .T. ) ;
#567 = EDGE_LOOP ( 'NONE', ( #821, #522, #157, #252 ) ) ;
#568 = DIRECTION ( 'NONE',  ( 8.673617379884033500E-16, 0.000000000000000000, 1.000000000000000000 ) ) ;
#569 = LINE ( 'NONE', #239, #22 ) ;
#570 = CARTESIAN_POINT ( 'NONE',  ( 22.04000000000000270, 0.000000000000000000, 27.00000000000000000 ) ) ;
#571 = VERTEX_POINT ( 'NONE', #577 ) ;
#572 = DIRECTION ( 'NONE',  ( 0.000000000000000000, -1.000000000000000000, 0.000000000000000000 ) ) ;
#573 = CARTESIAN_POINT ( 'NONE',  ( 0.000000000000000000, 0.000000000000000000, 0.000000000000000000 ) ) ;
#574 = ORIENTED_EDGE ( 'NONE', *, *, #489, .F. ) ;
#575 = AXIS2_PLACEMENT_3D ( 'NONE', #238, #314, #33 ) ;
#576 = AXIS2_PLACEMENT_3D ( 'NONE', #59, #381, #565 ) ;
#577 = CARTESIAN_POINT ( 'NONE',  ( 19.04000000000000981, 12.00000000000000000, 25.50000000000000000 ) ) ;
#578 = CARTESIAN_POINT ( 'NONE',  ( -34.96000000000049113, 12.00000000000000000, -27.00000000000000000 ) ) ;
#579 = VERTEX_POINT ( 'NONE', #442 ) ;
#580 = CARTESIAN_POINT ( 'NONE',  ( -30.91000000000049397, 12.00000000000000000, -22.94999999999999929 ) ) ;
#581 = EDGE_CURVE ( 'NONE', #584, #295, #129, .T. ) ;
#582 = FILL_AREA_STYLE ('',( #404 ) ) ;
#583 = PLANE ( 'NONE',  #217 ) ;
#584 = VERTEX_POINT ( 'NONE', #559 ) ;
#585 = CARTESIAN_POINT ( 'NONE',  ( -30.91000000000048686, 12.00000000000000000, 22.94999999999999929 ) ) ;
#586 = CARTESIAN_POINT ( 'NONE',  ( -31.95999999999999375, 12.00000000000000000, 24.00000000000000000 ) ) ;
#587 = FACE_OUTER_BOUND ( 'NONE', #674, .T. ) ;
#588 = LINE ( 'NONE', #267, #320 ) ;
#589 = ORIENTED_EDGE ( 'NONE', *, *, #546, .T. ) ;
#590 = CARTESIAN_POINT ( 'NONE',  ( -31.95999999999999375, -1.371604415045033344E-15, 22.50000000000001421 ) ) ;
#591 = CIRCLE ( 'NONE', #575, 1.499999999999997780 ) ;
#592 = VECTOR ( 'NONE', #257, 1000.000000000000000 ) ;
#593 = EDGE_LOOP ( 'NONE', ( #699, #48, #268, #298, #197, #750, #456, #276 ) ) ;
#594 = PLANE ( 'NONE',  #562 ) ;
#595 = LINE ( 'NONE', #75, #47 ) ;
#596 = VERTEX_POINT ( 'NONE', #244 ) ;
#597 = CARTESIAN_POINT ( 'NONE',  ( -20.91000000000049042, 12.00000000000000000, 22.94999999999999929 ) ) ;
#598 = LINE ( 'NONE', #472, #708 ) ;
#599 = ORIENTED_EDGE ( 'NONE', *, *, #759, .F. ) ;
#600 = CARTESIAN_POINT ( 'NONE',  ( 17.99000000000000554, 12.94999999999999929, -22.94999999999999929 ) ) ;
#601 = VECTOR ( 'NONE', #211, 1000.000000000000000 ) ;
#602 = AXIS2_PLACEMENT_3D ( 'NONE', #600, #283, #663 ) ;
#603 = LINE ( 'NONE', #279, #614 ) ;
#604 = ORIENTED_EDGE ( 'NONE', *, *, #521, .T. ) ;
#605 = DIRECTION ( 'NONE',  ( -0.000000000000000000, -1.000000000000000000, -0.000000000000000000 ) ) ;
#606 = EDGE_CURVE ( 'NONE', #203, #451, #683, .T. ) ;
#607 = VERTEX_POINT ( 'NONE', #752 ) ;
#608 = DIRECTION ( 'NONE',  ( -0.000000000000000000, -1.000000000000000000, -0.000000000000000000 ) ) ;
#609 = ADVANCED_FACE ( 'NONE', ( #194 ), #834, .T. ) ;
#610 = ORIENTED_EDGE ( 'NONE', *, *, #292, .F. ) ;
#611 = AXIS2_PLACEMENT_3D ( 'NONE', #806, #485, #289 ) ;
#612 = CIRCLE ( 'NONE', #248, 10.00000000000000000 ) ;
#613 = VERTEX_POINT ( 'NONE', #114 ) ;
#614 = VECTOR ( 'NONE', #16, 1000.000000000000000 ) ;
#615 = ADVANCED_FACE ( 'NONE', ( #815, #761 ), #119, .T. ) ;
#616 = LINE ( 'NONE', #99, #654 ) ;
#617 = VERTEX_POINT ( 'NONE', #377 ) ;
#618 = VERTEX_POINT ( 'NONE', #185 ) ;
#619 = ADVANCED_FACE ( 'NONE', ( #389 ), #627, .F. ) ;
#620 = CARTESIAN_POINT ( 'NONE',  ( -34.96000000000049113, 12.00000000000000000, -27.00000000000000000 ) ) ;
#621 = VERTEX_POINT ( 'NONE', #720 ) ;
#622 = ORIENTED_EDGE ( 'NONE', *, *, #210, .T. ) ;
#623 = FACE_OUTER_BOUND ( 'NONE', #742, .T. ) ;
#624 = LINE ( 'NONE', #756, #765 ) ;
#625 = VERTEX_POINT ( 'NONE', #648 ) ;
#626 = CARTESIAN_POINT ( 'NONE',  ( 7.990000000000012648, 12.00000000000000000, 12.94999999999999574 ) ) ;
#627 = PLANE ( 'NONE',  #90 ) ;
#628 = ORIENTED_EDGE ( 'NONE', *, *, #142, .T. ) ;
#629 = ORIENTED_EDGE ( 'NONE', *, *, #259, .T. ) ;
#630 = DIRECTION ( 'NONE',  ( -9.123360503285429670E-15, 0.000000000000000000, -1.000000000000000000 ) ) ;
#631 = FACE_OUTER_BOUND ( 'NONE', #36, .T. ) ;
#632 = EDGE_CURVE ( 'NONE', #836, #192, #407, .T. ) ;
#633 = EDGE_LOOP ( 'NONE', ( #628, #695 ) ) ;
#634 = CARTESIAN_POINT ( 'NONE',  ( 7.990000000000010871, 12.94999999999999929, 22.94999999999999929 ) ) ;
#635 = CARTESIAN_POINT ( 'NONE',  ( -20.91000000000049397, 12.00000000000000000, -12.95000000000000107 ) ) ;
#636 = FACE_BOUND ( 'NONE', #273, .T. ) ;
#637 = ORIENTED_EDGE ( 'NONE', *, *, #349, .T. ) ;
#638 = DIRECTION ( 'NONE',  ( -0.000000000000000000, -1.000000000000000000, -0.000000000000000000 ) ) ;
#639 = AXIS2_PLACEMENT_3D ( 'NONE', #502, #682, #440 ) ;
#640 = EDGE_CURVE ( 'NONE', #687, #117, #23, .T. ) ;
#641 = AXIS2_PLACEMENT_3D ( 'NONE', #772, #373, #514 ) ;
#642 = CARTESIAN_POINT ( 'NONE',  ( -31.96000000000000085, 0.000000000000000000, -22.50000000000000711 ) ) ;
#643 = LINE ( 'NONE', #260, #200 ) ;
#644 = ORIENTED_EDGE ( 'NONE', *, *, #405, .F. ) ;
#645 = DIRECTION ( 'NONE',  ( 0.000000000000000000, 0.000000000000000000, 1.000000000000000000 ) ) ;
#646 = EDGE_CURVE ( 'NONE', #618, #375, #526, .T. ) ;
#647 = CARTESIAN_POINT ( 'NONE',  ( 22.04000000000000270, 12.00000000000000000, -27.00000000000000000 ) ) ;
#648 = CARTESIAN_POINT ( 'NONE',  ( -20.91000000000049397, 12.94999999999999929, -22.94999999999999929 ) ) ;
#649 = CYLINDRICAL_SURFACE ( 'NONE', #281, 2.500000000000000000 ) ;
#650 = EDGE_LOOP ( 'NONE', ( #808, #97, #411, #689 ) ) ;
#651 = CARTESIAN_POINT ( 'NONE',  ( 0.000000000000000000, 12.00000000000000000, 0.000000000000000000 ) ) ;
#652 = ORIENTED_EDGE ( 'NONE', *, *, #773, .F. ) ;
#653 = DIRECTION ( 'NONE',  ( 0.000000000000000000, -0.000000000000000000, 1.000000000000000000 ) ) ;
#654 = VECTOR ( 'NONE', #118, 1000.000000000000000 ) ;
#655 = DIRECTION ( 'NONE',  ( 0.000000000000000000, 0.000000000000000000, 1.000000000000000000 ) ) ;
#656 = AXIS2_PLACEMENT_3D ( 'NONE', #124, #829, #190 ) ;
#657 =( LENGTH_UNIT ( ) NAMED_UNIT ( * ) SI_UNIT ( .MILLI., .METRE. ) );
#658 = ADVANCED_FACE ( 'NONE', ( #470 ), #788, .F. ) ;
#659 = ORIENTED_EDGE ( 'NONE', *, *, #441, .T. ) ;
#660 = CARTESIAN_POINT ( 'NONE',  ( -30.91000000000048686, 12.94999999999999929, 22.94999999999999929 ) ) ;
#661 = APPLICATION_CONTEXT ( 'automotive_design' ) ;
#662 = VERTEX_POINT ( 'NONE', #138 ) ;
#663 = DIRECTION ( 'NONE',  ( 1.511741591265191831E-16, 0.000000000000000000, 1.000000000000000000 ) ) ;
#664 = ORIENTED_EDGE ( 'NONE', *, *, #791, .F. ) ;
#665 = AXIS2_PLACEMENT_3D ( 'NONE', #743, #296, #680 ) ;
#666 = VECTOR ( 'NONE', #721, 1000.000000000000000 ) ;
#667 = CIRCLE ( 'NONE', #611, 1.499999999999987566 ) ;
#668 = ORIENTED_EDGE ( 'NONE', *, *, #69, .T. ) ;
#669 = CARTESIAN_POINT ( 'NONE',  ( 22.04000000000000270, 0.000000000000000000, -27.00000000000000000 ) ) ;
#670 = ORIENTED_EDGE ( 'NONE', *, *, #759, .T. ) ;
#671 = APPLICATION_PROTOCOL_DEFINITION ( 'draft international standard', 'automotive_design', 1998, #391 ) ;
#672 = ADVANCED_FACE ( 'NONE', ( #278 ), #258, .F. ) ;
#673 = ORIENTED_EDGE ( 'NONE', *, *, #38, .F. ) ;
#674 = EDGE_LOOP ( 'NONE', ( #549, #352, #541, #82 ) ) ;
#675 = CARTESIAN_POINT ( 'NONE',  ( -30.91000000000048686, 12.00000000000000000, 12.95000000000000284 ) ) ;
#676 =( NAMED_UNIT ( * ) PLANE_ANGLE_UNIT ( ) SI_UNIT ( $, .RADIAN. ) );
#677 = CIRCLE ( 'NONE', #506, 1.499999999999997780 ) ;
#678 = ORIENTED_EDGE ( 'NONE', *, *, #149, .F. ) ;
#679 = PRODUCT_RELATED_PRODUCT_CATEGORY ( 'part', '', ( #74 ) ) ;
#680 = DIRECTION ( 'NONE',  ( 0.000000000000000000, 0.000000000000000000, -1.000000000000000000 ) ) ;
#681 = ORIENTED_EDGE ( 'NONE', *, *, #354, .T. ) ;
#682 = DIRECTION ( 'NONE',  ( 0.000000000000000000, -1.000000000000000000, 0.000000000000000000 ) ) ;
#683 = LINE ( 'NONE', #503, #816 ) ;
#684 = EDGE_LOOP ( 'NONE', ( #408, #423 ) ) ;
#685 = CARTESIAN_POINT ( 'NONE',  ( -20.91000000000049042, 12.94999999999999929, 22.94999999999999929 ) ) ;
#686 = DIRECTION ( 'NONE',  ( -0.000000000000000000, -1.000000000000000000, -0.000000000000000000 ) ) ;
#687 = VERTEX_POINT ( 'NONE', #597 ) ;
#688 = VECTOR ( 'NONE', #326, 1000.000000000000000 ) ;
#689 = ORIENTED_EDGE ( 'NONE', *, *, #467, .T. ) ;
#690 = VECTOR ( 'NONE', #328, 1000.000000000000000 ) ;
#691 = CARTESIAN_POINT ( 'NONE',  ( -34.96000000000000085, 12.00000000000000000, 27.00000000000000000 ) ) ;
#692 = EDGE_CURVE ( 'NONE', #596, #625, #792, .T. ) ;
#693 = CARTESIAN_POINT ( 'NONE',  ( -34.96000000000000085, 0.000000000000000000, 27.00000000000000000 ) ) ;
#694 = DIRECTION ( 'NONE',  ( 1.000000000000000000, 0.000000000000000000, -1.511741591265191831E-16 ) ) ;
#695 = ORIENTED_EDGE ( 'NONE', *, *, #164, .T. ) ;
#696 = CARTESIAN_POINT ( 'NONE',  ( 19.03999999999999559, 12.00000000000000000, -24.00000000000000000 ) ) ;
#697 = DIRECTION ( 'NONE',  ( 0.000000000000000000, 0.000000000000000000, -1.000000000000000000 ) ) ;
#698 = EDGE_CURVE ( 'NONE', #340, #625, #795, .T. ) ;
#699 = ORIENTED_EDGE ( 'NONE', *, *, #69, .F. ) ;
#700 = CARTESIAN_POINT ( 'NONE',  ( 22.04000000000000270, 12.00000000000000000, 27.00000000000000000 ) ) ;
#701 = DIRECTION ( 'NONE',  ( 0.000000000000000000, 0.000000000000000000, -1.000000000000000000 ) ) ;
#702 = DIRECTION ( 'NONE',  ( 1.000000000000000000, 0.000000000000000000, 0.000000000000000000 ) ) ;
#703 = FACE_BOUND ( 'NONE', #400, .T. ) ;
#704 = ORIENTED_EDGE ( 'NONE', *, *, #58, .T. ) ;
#705 = FACE_BOUND ( 'NONE', #593, .T. ) ;
#706 = EDGE_CURVE ( 'NONE', #383, #219, #595, .T. ) ;
#707 = AXIS2_PLACEMENT_3D ( 'NONE', #809, #357, #299 ) ;
#708 = VECTOR ( 'NONE', #331, 1000.000000000000000 ) ;
#709 = CARTESIAN_POINT ( 'NONE',  ( -20.91000000000049042, 12.00000000000000000, 12.94999999999999929 ) ) ;
#710 = CARTESIAN_POINT ( 'NONE',  ( 19.04000000000000981, -1.371604415045033344E-15, 22.50000000000001421 ) ) ;
#711 = ORIENTED_EDGE ( 'NONE', *, *, #531, .F. ) ;
#712 = DIRECTION ( 'NONE',  ( 0.000000000000000000, 0.000000000000000000, 1.000000000000000000 ) ) ;
#713 = DIRECTION ( 'NONE',  ( 0.000000000000000000, 0.000000000000000000, -1.000000000000000000 ) ) ;
#714 = CARTESIAN_POINT ( 'NONE',  ( 17.99000000000000554, 12.94999999999999929, -12.95000000000000107 ) ) ;
#715 = ORIENTED_EDGE ( 'NONE', *, *, #553, .F. ) ;
#716 = FACE_OUTER_BOUND ( 'NONE', #350, .T. ) ;
#717 = LINE ( 'NONE', #532, #291 ) ;
#718 = UNCERTAINTY_MEASURE_WITH_UNIT (LENGTH_MEASURE( 1.000000000000000082E-05 ), #739, 'distance_accuracy_value', 'NONE');
#719 = ADVANCED_FACE ( 'NONE', ( #587 ), #325, .F. ) ;
#720 = CARTESIAN_POINT ( 'NONE',  ( -30.91000000000048686, 12.94999999999999929, 12.95000000000000284 ) ) ;
#721 = DIRECTION ( 'NONE',  ( -1.511741591265191585E-16, -0.000000000000000000, -1.000000000000000000 ) ) ;
#722 = ORIENTED_EDGE ( 'NONE', *, *, #822, .T. ) ;
#723 = FACE_OUTER_BOUND ( 'NONE', #486, .T. ) ;
#724 = VECTOR ( 'NONE', #828, 1000.000000000000000 ) ;
#725 = DIRECTION ( 'NONE',  ( 0.000000000000000000, 0.000000000000000000, -1.000000000000000000 ) ) ;
#726 = VERTEX_POINT ( 'NONE', #714 ) ;
#727 = CARTESIAN_POINT ( 'NONE',  ( -30.91000000000049397, 12.94999999999999929, -12.94999999999999929 ) ) ;
#728 = VERTEX_POINT ( 'NONE', #727 ) ;
#729 = DIRECTION ( 'NONE',  ( 0.000000000000000000, 0.000000000000000000, -1.000000000000000000 ) ) ;
#730 = CARTESIAN_POINT ( 'NONE',  ( 17.99000000000000554, 12.00000000000000000, -22.94999999999999929 ) ) ;
#731 = ORIENTED_EDGE ( 'NONE', *, *, #246, .T. ) ;
#732 = CIRCLE ( 'NONE', #303, 2.500000000000000000 ) ;
#733 = CARTESIAN_POINT ( 'NONE',  ( 0.000000000000000000, 0.000000000000000000, 0.000000000000000000 ) ) ;
#734 = VECTOR ( 'NONE', #264, 1000.000000000000000 ) ;
#735 = ORIENTED_EDGE ( 'NONE', *, *, #149, .T. ) ;
#736 = CARTESIAN_POINT ( 'NONE',  ( -20.91000000000049397, 12.94999999999999929, -12.95000000000000107 ) ) ;
#737 = CARTESIAN_POINT ( 'NONE',  ( -31.95999999999999375, -1.371604415045033344E-15, 24.00000000000000000 ) ) ;
#738 = DIRECTION ( 'NONE',  ( -0.000000000000000000, -1.000000000000000000, -0.000000000000000000 ) ) ;
#739 =( LENGTH_UNIT ( ) NAMED_UNIT ( * ) SI_UNIT ( .MILLI., .METRE. ) );
#740 = EDGE_LOOP ( 'NONE', ( #188, #459, #343, #555 ) ) ;
#741 = PRODUCT_DEFINITION_FORMATION_WITH_SPECIFIED_SOURCE ( 'ANY', '', #74, .NOT_KNOWN. ) ;
#742 = EDGE_LOOP ( 'NONE', ( #764, #398, #368, #444 ) ) ;
#743 = CARTESIAN_POINT ( 'NONE',  ( 0.000000000000000000, 12.94999999999999929, 0.000000000000000000 ) ) ;
#744 = CARTESIAN_POINT ( 'NONE',  ( 0.000000000000000000, 12.94999999999999929, 0.000000000000000000 ) ) ;
#745 = AXIS2_PLACEMENT_3D ( 'NONE', #376, #499, #177 ) ;
#746 = MANIFOLD_SOLID_BREP ( 'Cut-Extrude8 (MEMS light hole)', #265 ) ;
#747 = AXIS2_PLACEMENT_3D ( 'NONE', #737, #35, #812 ) ;
#748 = CARTESIAN_POINT ( 'NONE',  ( 19.03999999999999559, 0.000000000000000000, -24.00000000000000000 ) ) ;
#749 = AXIS2_PLACEMENT_3D ( 'NONE', #709, #330, #838 ) ;
#750 = ORIENTED_EDGE ( 'NONE', *, *, #175, .T. ) ;
#751 = DIRECTION ( 'NONE',  ( 0.000000000000000000, 0.000000000000000000, -1.000000000000000000 ) ) ;
#752 = CARTESIAN_POINT ( 'NONE',  ( 19.04000000000000981, 12.00000000000000000, 22.50000000000000355 ) ) ;
#753 = ORIENTED_EDGE ( 'NONE', *, *, #558, .F. ) ;
#754 = EDGE_CURVE ( 'NONE', #617, #261, #49, .T. ) ;
#755 = FACE_OUTER_BOUND ( 'NONE', #740, .T. ) ;
#756 = CARTESIAN_POINT ( 'NONE',  ( -30.91000000000048686, 12.94999999999999929, 12.95000000000000284 ) ) ;
#757 = EDGE_LOOP ( 'NONE', ( #652, #337, #681, #327 ) ) ;
#758 = ORIENTED_EDGE ( 'NONE', *, *, #246, .F. ) ;
#759 = EDGE_CURVE ( 'NONE', #571, #607, #134, .T. ) ;
#760 = DIRECTION ( 'NONE',  ( 0.000000000000000000, 1.000000000000000000, 0.000000000000000000 ) ) ;
#761 = FACE_OUTER_BOUND ( 'NONE', #823, .T. ) ;
#762 = FACE_OUTER_BOUND ( 'NONE', #170, .T. ) ;
#763 = CIRCLE ( 'NONE', #30, 10.00000000000000178 ) ;
#764 = ORIENTED_EDGE ( 'NONE', *, *, #164, .F. ) ;
#765 = VECTOR ( 'NONE', #437, 1000.000000000000000 ) ;
#766 = CYLINDRICAL_SURFACE ( 'NONE', #427, 10.00000000000000000 ) ;
#767 = ADVANCED_FACE ( 'NONE', ( #410 ), #488, .F. ) ;
#768 = CARTESIAN_POINT ( 'NONE',  ( 22.04000000000000270, 0.000000000000000000, -27.00000000000000000 ) ) ;
#769 = DIRECTION ( 'NONE',  ( -0.000000000000000000, -1.000000000000000000, -0.000000000000000000 ) ) ;
#770 = ORIENTED_EDGE ( 'NONE', *, *, #224, .T. ) ;
#771 = DIRECTION ( 'NONE',  ( -0.000000000000000000, -1.000000000000000000, -0.000000000000000000 ) ) ;
#772 = CARTESIAN_POINT ( 'NONE',  ( 0.000000000000000000, 12.94999999999999929, 0.000000000000000000 ) ) ;
#773 = EDGE_CURVE ( 'NONE', #448, #726, #158, .T. ) ;
#774 = DIRECTION ( 'NONE',  ( 1.511741591265191585E-16, 0.000000000000000000, 1.000000000000000000 ) ) ;
#775 = EDGE_LOOP ( 'NONE', ( #589, #94, #529, #492 ) ) ;
#776 = CARTESIAN_POINT ( 'NONE',  ( -30.91000000000049397, 12.94999999999999929, -12.94999999999999929 ) ) ;
#777 = PRESENTATION_STYLE_ASSIGNMENT (( #466 ) ) ;
#778 = CYLINDRICAL_SURFACE ( 'NONE', #98, 9.999999999999998224 ) ;
#779 = ORIENTED_EDGE ( 'NONE', *, *, #162, .T. ) ;
#780 = DIRECTION ( 'NONE',  ( -0.000000000000000000, -1.000000000000000000, -0.000000000000000000 ) ) ;
#781 = AXIS2_PLACEMENT_3D ( 'NONE', #432, #307, #54 ) ;
#782 = DIRECTION ( 'NONE',  ( -0.000000000000000000, -1.000000000000000000, -0.000000000000000000 ) ) ;
#783 = CARTESIAN_POINT ( 'NONE',  ( -31.95999999999999375, 0.000000000000000000, 24.00000000000000000 ) ) ;
#784 = CARTESIAN_POINT ( 'NONE',  ( -31.96000000000000085, -1.371604415045033344E-15, -22.50000000000001421 ) ) ;
#785 = ORIENTED_EDGE ( 'NONE', *, *, #227, .F. ) ;
#786 = CARTESIAN_POINT ( 'NONE',  ( -34.96000000000000085, 12.00000000000000000, 27.00000000000000000 ) ) ;
#787 = EDGE_CURVE ( 'NONE', #662, #497, #544, .T. ) ;
#788 = PLANE ( 'NONE',  #493 ) ;
#789 = ORIENTED_EDGE ( 'NONE', *, *, #210, .F. ) ;
#790 = LINE ( 'NONE', #786, #803 ) ;
#791 = EDGE_CURVE ( 'NONE', #67, #505, #25, .T. ) ;
#792 = LINE ( 'NONE', #70, #601 ) ;
#793 = ORIENTED_EDGE ( 'NONE', *, *, #471, .F. ) ;
#794 = AXIS2_PLACEMENT_3D ( 'NONE', #270, #780, #205 ) ;
#795 = LINE ( 'NONE', #148, #304 ) ;
#796 = EDGE_LOOP ( 'NONE', ( #41, #807 ) ) ;
#797 = DIRECTION ( 'NONE',  ( 0.000000000000000000, 1.000000000000000000, 0.000000000000000000 ) ) ;
#798 = EDGE_CURVE ( 'NONE', #473, #105, #667, .T. ) ;
#799 = EDGE_LOOP ( 'NONE', ( #668, #235, #116, #77 ) ) ;
#800 = DIRECTION ( 'NONE',  ( -1.511741591265191585E-16, -0.000000000000000000, -1.000000000000000000 ) ) ;
#801 = ORIENTED_EDGE ( 'NONE', *, *, #606, .T. ) ;
#802 = AXIS2_PLACEMENT_3D ( 'NONE', #744, #608, #729 ) ;
#803 = VECTOR ( 'NONE', #460, 1000.000000000000000 ) ;
#804 = CYLINDRICAL_SURFACE ( 'NONE', #548, 1.499999999999994449 ) ;
#805 = DIRECTION ( 'NONE',  ( 0.000000000000000000, 0.000000000000000000, 1.000000000000000000 ) ) ;
#806 = CARTESIAN_POINT ( 'NONE',  ( 19.04000000000000981, -1.371604415045033344E-15, 24.00000000000000000 ) ) ;
#807 = ORIENTED_EDGE ( 'NONE', *, *, #284, .F. ) ;
#808 = ORIENTED_EDGE ( 'NONE', *, *, #646, .F. ) ;
#809 = CARTESIAN_POINT ( 'NONE',  ( 19.04000000000000981, 0.000000000000000000, 24.00000000000000000 ) ) ;
#810 = DIRECTION ( 'NONE',  ( 0.000000000000000000, 0.000000000000000000, -1.000000000000000000 ) ) ;
#811 = PRODUCT_DEFINITION_CONTEXT ( 'detailed design', #661, 'design' ) ;
#812 = DIRECTION ( 'NONE',  ( 0.000000000000000000, 0.000000000000000000, -1.000000000000000000 ) ) ;
#813 = CARTESIAN_POINT ( 'NONE',  ( -31.95999999999999375, 0.000000000000000000, 25.49999999999999645 ) ) ;
#814 = VECTOR ( 'NONE', #247, 1000.000000000000000 ) ;
#815 = FACE_BOUND ( 'NONE', #545, .T. ) ;
#816 = VECTOR ( 'NONE', #110, 1000.000000000000000 ) ;
#817 = ADVANCED_FACE ( 'NONE', ( #294 ), #421, .F. ) ;
#818 = ORIENTED_EDGE ( 'NONE', *, *, #313, .T. ) ;
#819 = DIRECTION ( 'NONE',  ( 0.000000000000000000, 0.000000000000000000, -1.000000000000000000 ) ) ;
#820 = DIRECTION ( 'NONE',  ( 0.000000000000000000, 0.000000000000000000, -1.000000000000000000 ) ) ;
#821 = ORIENTED_EDGE ( 'NONE', *, *, #253, .F. ) ;
#822 = EDGE_CURVE ( 'NONE', #625, #728, #233, .T. ) ;
#823 = EDGE_LOOP ( 'NONE', ( #420, #779, #126, #818, #422, #722, #86, #622 ) ) ;
#824 = DIRECTION ( 'NONE',  ( 0.000000000000000000, -0.000000000000000000, 1.000000000000000000 ) ) ;
#825 = DIRECTION ( 'NONE',  ( 0.000000000000000000, 0.000000000000000000, 1.000000000000000000 ) ) ;
#826 = FACE_BOUND ( 'NONE', #796, .T. ) ;
#827 = ADVANCED_FACE ( 'NONE', ( #221 ), #474, .F. ) ;
#828 = DIRECTION ( 'NONE',  ( 0.000000000000000000, -1.000000000000000000, 0.000000000000000000 ) ) ;
#829 = DIRECTION ( 'NONE',  ( -0.000000000000000000, -1.000000000000000000, -0.000000000000000000 ) ) ;
#830 = DIRECTION ( 'NONE',  ( -0.000000000000000000, -1.000000000000000000, -0.000000000000000000 ) ) ;
#831 = EDGE_LOOP ( 'NONE', ( #88, #678, #476, #543 ) ) ;
#832 = CIRCLE ( 'NONE', #794, 1.499999999999987566 ) ;
#833 = EDGE_CURVE ( 'NONE', #101, #512, #547, .T. ) ;
#834 = CYLINDRICAL_SURFACE ( 'NONE', #390, 10.00000000000000000 ) ;
#835 = DIRECTION ( 'NONE',  ( -1.511741591265191831E-16, 0.000000000000000000, -1.000000000000000000 ) ) ;
#836 = VERTEX_POINT ( 'NONE', #415 ) ;
#837 = CARTESIAN_POINT ( 'NONE',  ( -34.96000000000049113, 0.000000000000000000, -27.00000000000000000 ) ) ;
#838 = DIRECTION ( 'NONE',  ( 0.000000000000000000, 0.000000000000000000, 1.000000000000000000 ) ) ;
#839 = LINE ( 'NONE', #397, #561 ) ;
ENDSEC;
END-ISO-10303-21;
